<?xml version="1.0" encoding="utf-8"?>
<!-- Generator: Adobe Illustrator 24.0.0, SVG Export Plug-In . SVG Version: 6.00 Build 0)  -->
<svg version="1.1" id="Слой_1" xmlns="http://www.w3.org/2000/svg" xmlns:xlink="http://www.w3.org/1999/xlink" x="0px" y="0px"
	 viewBox="0 0 568 174.2" style="enable-background:new 0 0 568 174.2;" xml:space="preserve" fill="#FFFFFF">
<g>
	<path d="M0,171.3L64.7,2.9h24l68.9,168.4h-25.4l-19.6-51H42.2l-18.5,51H0z M48.6,102.1h57.1L88.1,55.5
		c-5.4-14.2-9.3-25.8-11.9-34.9C74,31.4,71,42.1,67.1,52.7L48.6,102.1z"/>
</g>
<g>
	<path d="M288.9,117.2l21-1.8c1,8.4,3.3,15.3,7,20.7c3.6,5.4,9.3,9.8,16.9,13.1c7.7,3.3,16.3,5,25.8,5c8.5,0,16-1.3,22.5-3.8
		s11.4-6,14.5-10.4c3.2-4.4,4.8-9.2,4.8-14.4c0-5.3-1.5-9.9-4.6-13.8c-3.1-3.9-8.1-7.3-15.2-9.9c-4.5-1.8-14.5-4.5-30-8.2
		c-15.5-3.7-26.3-7.2-32.5-10.5c-8-4.2-14-9.4-18-15.7c-3.9-6.2-5.9-13.2-5.9-21c0-8.5,2.4-16.4,7.2-23.8c4.8-7.4,11.9-13,21.1-16.8
		C333,1.9,343.3,0,354.6,0c12.5,0,23.5,2,33,6s16.9,9.9,22,17.7c5.1,7.8,7.9,16.7,8.3,26.5l-21.4,1.6c-1.1-10.6-5-18.7-11.7-24.1
		c-6.6-5.4-16.4-8.2-29.4-8.2c-13.5,0-23.3,2.5-29.5,7.4c-6.2,4.9-9.2,10.9-9.2,17.9c0,6.1,2.2,11,6.5,14.9
		c4.3,3.9,15.5,7.9,33.6,12c18.1,4.1,30.5,7.7,37.3,10.7c9.8,4.5,17,10.2,21.7,17.2c4.7,6.9,7,14.9,7,24c0,9-2.6,17.4-7.7,25.3
		c-5.1,7.9-12.5,14.1-22.1,18.5c-9.6,4.4-20.4,6.6-32.5,6.6c-15.2,0-28-2.2-38.3-6.7c-10.3-4.4-18.4-11.1-24.2-20
		C292.3,138.5,289.2,128.4,288.9,117.2z"/>
</g>
<g>
	<path d="M433.9,117.2l21-1.8c1,8.4,3.3,15.3,7,20.7c3.6,5.4,9.3,9.8,16.9,13.1c7.7,3.3,16.3,5,25.8,5c8.5,0,16-1.3,22.5-3.8
		s11.4-6,14.5-10.4c3.2-4.4,4.8-9.2,4.8-14.4c0-5.3-1.5-9.9-4.6-13.8c-3.1-3.9-8.1-7.3-15.2-9.9c-4.5-1.8-14.5-4.5-30-8.2
		c-15.5-3.7-26.3-7.2-32.5-10.5c-8-4.2-14-9.4-18-15.7c-3.9-6.2-5.9-13.2-5.9-21c0-8.5,2.4-16.4,7.2-23.8c4.8-7.4,11.9-13,21.1-16.8
		C478,1.9,488.3,0,499.6,0c12.5,0,23.5,2,33,6s16.9,9.9,22,17.7c5.1,7.8,7.9,16.7,8.3,26.5l-21.4,1.6c-1.1-10.6-5-18.7-11.7-24.1
		c-6.6-5.4-16.4-8.2-29.4-8.2c-13.5,0-23.3,2.5-29.5,7.4c-6.2,4.9-9.2,10.9-9.2,17.9c0,6.1,2.2,11,6.5,14.9
		c4.3,3.9,15.5,7.9,33.6,12c18.1,4.1,30.5,7.7,37.3,10.7c9.8,4.5,17,10.2,21.7,17.2c4.7,6.9,7,14.9,7,24c0,9-2.6,17.4-7.7,25.3
		c-5.1,7.9-12.5,14.1-22.1,18.5c-9.6,4.4-20.4,6.6-32.5,6.6c-15.2,0-28-2.2-38.3-6.7c-10.3-4.4-18.4-11.1-24.2-20
		C437.3,138.5,434.2,128.4,433.9,117.2z"/>
</g>
<g>
	<g>
		<g>
			<path d="M223.8,72.5c1.1,0.3,1.6,1.1,1.8,2.2c0.3,1.5,0.6,3,1,4.5c0.1,0.2,0.3,0.5,0.5,0.6c1.1,0.5,2.2,1,3.4,1.4
				c0.2,0.1,0.6,0.1,0.8-0.1c1.3-0.8,2.6-1.7,4-2.5c1.3-0.8,2.2-0.7,3.3,0.3c2.6,2.6,5.3,5.3,7.9,7.9c1.1,1.1,1.2,2,0.3,3.3
				c-0.8,1.3-1.6,2.6-2.5,3.8c-0.3,0.4-0.2,0.7-0.1,1.1c0.5,1,0.9,2.1,1.3,3.1c0.1,0.4,0.3,0.6,0.8,0.7c1.5,0.3,3,0.6,4.5,1
				c1.4,0.3,2,1.1,2,2.5c0,3.8,0,7.5,0,11.3c0,1.5-0.6,2.2-2,2.5c-1.5,0.3-3,0.7-4.5,1c-0.4,0.1-0.6,0.3-0.8,0.7
				c-0.4,1.1-0.9,2.1-1.3,3.2c-0.2,0.4-0.2,0.6,0.1,0.9c0.8,1.3,1.7,2.6,2.5,3.8c0.9,1.4,0.8,2.2-0.3,3.4c-2.6,2.6-5.2,5.2-7.8,7.8
				c-1.1,1.1-2,1.2-3.4,0.4c-1.3-0.8-2.6-1.6-3.8-2.5c-0.3-0.2-0.6-0.2-0.9-0.1c-1.1,0.5-2.2,0.9-3.2,1.4c-0.3,0.1-0.5,0.4-0.6,0.7
				c-0.4,1.5-0.7,3-1,4.5c-0.3,1.4-1.1,2-2.5,2.1c-3.8,0-7.5,0-11.3,0c-1.5,0-2.2-0.6-2.5-2c-0.3-1.5-0.6-3-1-4.5
				c-0.1-0.3-0.3-0.6-0.6-0.7c-1.1-0.5-2.2-1-3.3-1.4c-0.2-0.1-0.6-0.1-0.9,0.1c-1.3,0.8-2.6,1.7-4,2.5c-1.3,0.8-2.2,0.7-3.2-0.4
				c-2.6-2.6-5.3-5.3-7.9-7.9c-1.1-1.1-1.2-2-0.4-3.3c0.8-1.3,1.7-2.6,2.5-4c0.1-0.2,0.2-0.6,0.1-0.8c-0.4-1.1-0.9-2.2-1.4-3.3
				c-0.1-0.3-0.4-0.5-0.7-0.6c-1.5-0.4-2.9-0.7-4.4-1c-1.1-0.2-1.9-0.7-2.2-1.8c0-4.2,0-8.5,0-12.7c0.3-1.1,1.1-1.6,2.2-1.8
				c1.5-0.3,2.9-0.6,4.4-1c0.3-0.1,0.6-0.3,0.7-0.6c0.5-1.1,1-2.2,1.4-3.3c0.1-0.2,0.1-0.6-0.1-0.8c-0.8-1.3-1.7-2.6-2.5-4
				c-0.8-1.3-0.7-2.2,0.3-3.3c2.6-2.6,5.3-5.3,7.9-7.9c1.1-1.1,2-1.2,3.3-0.3c1.3,0.8,2.6,1.7,4,2.5c0.2,0.1,0.6,0.1,0.8,0.1
				c1.1-0.4,2.3-0.9,3.4-1.4c0.2-0.1,0.5-0.4,0.5-0.6c0.4-1.5,0.7-3,1-4.5c0.2-1.1,0.7-1.9,1.8-2.2
				C215.3,72.5,219.6,72.5,223.8,72.5z M236.2,133c2.1-2.1,4.1-4.1,6.2-6.2c-0.7-1.2-1.5-2.5-2.4-3.7c-0.6-0.9-0.6-1.8-0.1-2.9
				c0.8-1.6,1.5-3.3,2.1-5c0.4-1.1,1-1.7,2.1-1.9c1.3-0.3,2.7-0.6,4-0.8c0.4-0.1,0.6-0.3,0.6-0.7c0-2.5,0-4.9,0-7.4
				c0-0.5-0.1-0.6-0.6-0.7c-1.3-0.3-2.6-0.6-3.9-0.8c-1.2-0.2-1.8-0.9-2.2-2c-0.6-1.6-1.2-3.3-2-4.8c-0.5-1.1-0.6-2.1,0.1-3.1
				c0.9-1.2,1.6-2.5,2.4-3.8c-2.1-2.1-4.1-4.1-6.1-6.1c-1.3,0.8-2.6,1.6-3.9,2.5c-1,0.7-1.9,0.6-2.9,0.1c-1.6-0.8-3.3-1.5-5-2.1
				c-1.1-0.4-1.7-1-2-2.2c-0.3-1.3-0.6-2.7-0.8-4c-0.1-0.4-0.3-0.6-0.7-0.6c-2.5,0-5,0-7.5,0c-0.4,0-0.6,0.1-0.7,0.6
				c-0.3,1.3-0.6,2.7-0.8,4c-0.2,1.1-0.8,1.8-1.9,2.2c-1.7,0.6-3.4,1.3-5,2.1c-1,0.5-1.9,0.5-2.9-0.1c-1.3-0.9-2.6-1.7-3.8-2.5
				c-2.1,2.1-4.1,4.1-6.1,6.1c0.8,1.2,1.6,2.6,2.5,3.8c0.6,0.9,0.6,1.8,0.1,2.9c-0.8,1.6-1.5,3.3-2.1,5c-0.4,1.1-1,1.7-2.1,1.9
				c-1.3,0.3-2.7,0.6-4,0.8c-0.4,0.1-0.6,0.3-0.6,0.7c0,2.5,0,4.9,0,7.4c0,0.5,0.1,0.6,0.6,0.7c1.3,0.3,2.6,0.6,3.9,0.8
				c1.2,0.2,1.8,0.9,2.2,2c0.6,1.6,1.2,3.3,2,4.8c0.5,1.1,0.6,2.1-0.1,3.1c-0.9,1.2-1.7,2.5-2.4,3.8c2.1,2.1,4.1,4.1,6.1,6.1
				c1.3-0.8,2.6-1.6,3.9-2.5c1-0.7,1.9-0.6,2.9-0.1c1.6,0.8,3.3,1.5,5,2.1c1.1,0.4,1.7,1,2,2.2c0.3,1.3,0.6,2.7,0.8,4
				c0.1,0.4,0.3,0.6,0.7,0.6c2.5,0,5,0,7.5,0c0.4,0,0.6-0.1,0.7-0.6c0.3-1.3,0.6-2.7,0.8-4c0.2-1.1,0.9-1.8,2-2.2
				c1.7-0.6,3.3-1.3,4.9-2c1.1-0.5,2-0.6,3,0.1C233.9,131.5,235.2,132.3,236.2,133z"/>
			<path d="M217.4,127.5c-10.8,0-19.6-8.8-19.5-19.5c0-10.8,8.8-19.6,19.6-19.5c10.8,0,19.5,8.7,19.5,19.5
				C237,118.7,228.2,127.5,217.4,127.5z M204.7,108.1c0.1,7,5.8,12.7,12.8,12.6c7-0.1,12.8-5.9,12.7-12.8c-0.1-7-5.8-12.7-12.8-12.6
				C210.4,95.3,204.6,101.2,204.7,108.1z"/>
		</g>
	</g>
	<path d="M263,0.5v108c0,25.4-21.1,45.5-46.5,45.5s-46-20.6-46-46s20.6-46,46-46c8.5,0,16.8,2.3,24,6.7l8.9-14.5
		c-9.9-6.1-21.2-9.3-32.9-9.3c-34.7,0-63,28.3-63,63c0,34.7,28.3,63,63,63s63.5-27.8,63.5-62.5V0.5H263z"/>
</g>
</svg>
